<mxfile host="www.draw.io" modified="2019-12-23T13:35:14.428Z" agent="Mozilla/5.0 (X11; Linux x86_64) AppleWebKit/537.36 (KHTML, like Gecko) Chrome/79.0.3945.88 Safari/537.36" etag="HWiqJ4CP0nxjvyObGvRw" version="12.4.3" type="github" pages="1">
  <diagram id="ZikUBlQlaSI12r_E4KC8" name="第 1 页">
    <mxGraphModel dx="809" dy="448" grid="1" gridSize="10" guides="1" tooltips="1" connect="1" arrows="1" fold="1" page="1" pageScale="1" pageWidth="1600" pageHeight="900" math="0" shadow="0">
      <root>
        <mxCell id="0"/>
        <mxCell id="1" parent="0"/>
        <mxCell id="ZpFADo_pX2ZHXtXQgRQn-1" value="&lt;font color=&quot;#ffffff&quot; style=&quot;font-size: 15px&quot;&gt;&lt;b&gt;元数据管理&lt;/b&gt;&lt;/font&gt;" style="rounded=0;whiteSpace=wrap;html=1;strokeColor=none;fillColor=#FFE6CC;gradientColor=#CC6600;" vertex="1" parent="1">
          <mxGeometry x="348" y="640" width="120" height="60" as="geometry"/>
        </mxCell>
        <mxCell id="ZpFADo_pX2ZHXtXQgRQn-3" value="主数据管理" style="rounded=0;whiteSpace=wrap;html=1;fillColor=#99CCFF;gradientColor=#0066CC;strokeColor=none;fontColor=#FFFFFF;fontSize=16;" vertex="1" parent="1">
          <mxGeometry x="106" y="476" width="120" height="60" as="geometry"/>
        </mxCell>
        <mxCell id="ZpFADo_pX2ZHXtXQgRQn-4" value="数据质量管理" style="rounded=0;whiteSpace=wrap;html=1;fillColor=#99CCFF;gradientColor=#0066CC;strokeColor=none;fontColor=#FFFFFF;fontSize=15;" vertex="1" parent="1">
          <mxGeometry x="267" y="476" width="120" height="60" as="geometry"/>
        </mxCell>
        <mxCell id="ZpFADo_pX2ZHXtXQgRQn-5" value="数据标准管理" style="rounded=0;whiteSpace=wrap;html=1;fillColor=#99CCFF;gradientColor=#0066CC;strokeColor=none;fontColor=#FFFFFF;fontSize=15;" vertex="1" parent="1">
          <mxGeometry x="429" y="476" width="120" height="60" as="geometry"/>
        </mxCell>
        <mxCell id="ZpFADo_pX2ZHXtXQgRQn-6" value="数据安全管理" style="rounded=0;whiteSpace=wrap;html=1;fillColor=#99CCFF;gradientColor=#0066CC;strokeColor=none;fontColor=#FFFFFF;fontSize=15;" vertex="1" parent="1">
          <mxGeometry x="590" y="476" width="120" height="60" as="geometry"/>
        </mxCell>
        <mxCell id="ZpFADo_pX2ZHXtXQgRQn-7" value="数据资产管理" style="rounded=0;whiteSpace=wrap;html=1;fillColor=#99CCFF;gradientColor=#0000FF;fontSize=15;fontColor=#FFFFFF;strokeColor=none;" vertex="1" parent="1">
          <mxGeometry x="106" y="430" width="604" height="30" as="geometry"/>
        </mxCell>
        <mxCell id="ZpFADo_pX2ZHXtXQgRQn-8" value="" style="triangle;whiteSpace=wrap;html=1;fillColor=#E6E6E6;gradientColor=#CCCCCC;fontSize=15;fontColor=#FFFFFF;rotation=90;strokeColor=none;" vertex="1" parent="1">
          <mxGeometry x="371.37" y="286.38" width="77.25" height="610" as="geometry"/>
        </mxCell>
      </root>
    </mxGraphModel>
  </diagram>
</mxfile>
